<svg width="74" height="73" viewBox="0 0 74 73" fill="none" xmlns="http://www.w3.org/2000/svg">
<path d="M41.7349 70.2109C38.2722 70.2069 35.4662 67.4009 35.4622 63.9382V35.5935C35.4622 34.9039 36.0212 34.3448 36.7108 34.3448C37.4004 34.3448 37.9595 34.9039 37.9595 35.5935V63.9382C37.8983 65.3254 38.6035 66.6343 39.7956 67.3462C40.9878 68.0581 42.4746 68.0581 43.6668 67.3462C44.8589 66.6343 45.5641 65.3254 45.5029 63.9382C45.5029 63.2486 46.0619 62.6896 46.7516 62.6896C47.4412 62.6896 48.0002 63.2486 48.0002 63.9382C47.9962 67.398 45.1946 70.2028 41.7349 70.2109Z" fill="#164A68"/>
<path d="M73.4509 40.6689H71.2474L70.9169 39.9344C69.9071 37.6546 67.6481 36.1844 65.1547 36.1844C62.6612 36.1844 60.4022 37.6546 59.3924 39.9344L59.0619 40.6689H57.0934L56.7629 39.9344C55.7531 37.6546 53.4941 36.1844 51.0007 36.1844C48.5072 36.1844 46.2482 37.6546 45.2384 39.9344L44.9079 40.6689H42.9394L42.6162 39.9344C41.6084 37.6501 39.3471 36.1761 36.8503 36.1761C34.3536 36.1761 32.0922 37.6501 31.0844 39.9344L30.7612 40.6689H28.7928L28.4622 39.9344C27.4525 37.6546 25.1935 36.1844 22.7 36.1844C20.2065 36.1844 17.9475 37.6546 16.9378 39.9344L16.6073 40.6689H14.6461L14.3156 39.9344C13.3058 37.6546 11.0468 36.1844 8.55336 36.1844C6.05989 36.1844 3.80088 37.6546 2.79113 39.9344L2.46061 40.6689H0V39.4203C0.0202496 20.525 15.3329 5.21238 34.2281 5.19214H39.2228C58.1181 5.21238 73.4307 20.525 73.4509 39.4203V40.6689ZM22.7037 33.6764C25.4935 33.6798 28.117 35.0038 29.777 37.2461C31.44 35.0093 34.0631 33.691 36.8503 33.691C39.6376 33.691 42.2606 35.0093 43.9237 37.2461C45.5867 35.0093 48.2097 33.691 50.997 33.691C53.7843 33.691 56.4073 35.0093 58.0703 37.2461C59.5072 35.3105 61.6743 34.0478 64.0668 33.7523C66.4593 33.4567 68.8684 34.1539 70.7333 35.6816C68.8235 19.722 55.2963 7.70202 39.2228 7.68213L34.2281 7.68212C18.0648 7.70439 4.49251 19.8544 2.6883 35.9167C4.53599 34.2705 6.99058 33.4769 9.45226 33.7298C11.9139 33.9826 14.1559 35.2587 15.6304 37.2461C17.2903 35.0038 19.9138 33.6798 22.7037 33.6764Z" fill="#164A68"/>
<path d="M37.012 2.44507C38.2533 2.44507 39.2596 3.45135 39.2596 4.69267V5.81647H34.7644V4.69267C34.7644 3.45135 35.7707 2.44507 37.012 2.44507Z" fill="#164A68"/>
<path d="M15.6083 40.0006C14.9187 40.0006 14.3596 39.4415 14.3596 38.7519C14.2086 28.6107 18.3014 18.8675 25.649 11.8762C28.9349 8.6774 32.7687 6.09498 36.9678 4.25201C37.6108 4.0005 38.3359 4.31784 38.5874 4.96081C38.8389 5.60377 38.5216 6.32889 37.8786 6.5804C33.9602 8.32792 30.3818 10.7549 27.309 13.7492C20.3753 20.4406 16.8937 28.8507 16.8937 38.7519C16.8938 39.0895 16.7572 39.4128 16.5151 39.6481C16.2729 39.8833 15.9458 40.0105 15.6083 40.0006Z" fill="#164A68"/>
<path d="M57.9087 40.0006C57.2191 40.0006 56.66 39.4416 56.66 38.752C56.66 15.6223 35.822 6.6539 35.609 6.56576C35.1693 6.4139 34.8505 6.03026 34.7817 5.57024C34.7129 5.11023 34.9055 4.65009 35.2815 4.37623C35.6574 4.10236 36.1544 4.06017 36.5712 4.26674C40.7639 6.19983 44.5888 8.8467 47.8753 12.0893C55.1565 19.0382 59.2421 28.6873 59.1647 38.752C59.1607 39.4428 58.5995 40.0006 57.9087 40.0006Z" fill="#164A68"/>
<path d="M29.6374 39.67C28.9728 39.6709 28.4239 39.1511 28.3887 38.4874C28.3447 37.5399 27.2576 15.1227 36.0864 5.3537C36.5543 4.86787 37.3234 4.84141 37.8235 5.29393C38.3237 5.74645 38.3741 6.51439 37.9373 7.02838C29.799 16.0335 30.8493 38.1348 30.8861 38.3552C30.9041 38.6865 30.7895 39.0113 30.5676 39.258C30.3457 39.5047 30.0348 39.6529 29.7035 39.67H29.6374Z" fill="#164A68"/>
<path d="M43.7841 39.67H43.7107C43.0235 39.6306 42.4979 39.0425 42.5355 38.3553C42.5355 38.1349 43.6078 16.0262 35.4842 7.02843C35.1683 6.70043 35.056 6.22647 35.1912 5.79162C35.3264 5.35677 35.6876 5.02998 36.1337 4.93886C36.5799 4.84774 37.0403 5.00673 37.3351 5.35375C46.1492 15.1227 45.0769 37.5399 45.0255 38.4875C44.9904 39.1483 44.4459 39.6671 43.7841 39.67Z" fill="#164A68"/>
</svg>
